<?xml version="1.0" encoding="iso-8859-1"?>
<!-- Generator: Adobe Illustrator 19.0.0, SVG Export Plug-In . SVG Version: 6.00 Build 0)  -->
<svg version="1.1" id="Layer_1" xmlns="http://www.w3.org/2000/svg" xmlns:xlink="http://www.w3.org/1999/xlink" x="0px" y="0px"
	 viewBox="0 0 511.999 511.999" style="enable-background:new 0 0 511.999 511.999;" xml:space="preserve">
<g>
	<g>
		<path d="M255.999,91.631c-107.404,0-194.471,87.068-194.471,194.471s87.068,194.471,194.471,194.471
			S450.47,393.507,450.47,286.103S363.403,91.631,255.999,91.631z M324.028,378.673l-86.022-86.022V170.997h34.362v107.423
			l75.958,75.957L324.028,378.673z"/>
	</g>
</g>
<g>
	<g>
		<path d="M439.277,18.09C394.046-13.581,331.702-2.589,300.03,42.645l163.801,114.694C495.504,112.106,484.51,49.764,439.277,18.09
			z"/>
	</g>
</g>
<g>
	<g>
		<path d="M72.721,18.091c-45.234,31.671-56.226,94.016-24.553,139.247l163.8-114.695C180.297-2.589,117.955-13.58,72.721,18.091z"
			/>
	</g>
</g>
<g>
	<g>
		<path d="M110.902,463.613l-20.08,28.677l28.147,19.709l20.068-28.66C129.156,477.46,119.751,470.866,110.902,463.613z"/>
	</g>
</g>
<g>
	<g>
		<path d="M401.096,463.614c-8.849,7.252-18.255,13.846-28.135,19.726l20.068,28.659l28.147-19.709L401.096,463.614z"/>
	</g>
</g>
<g>
	<g>
		<path d="M238.818,0v57.91c5.672-0.422,11.401-0.64,17.181-0.64c5.78,0,11.509,0.219,17.181,0.64V0H238.818z"/>
	</g>
</g>
<g>
</g>
<g>
</g>
<g>
</g>
<g>
</g>
<g>
</g>
<g>
</g>
<g>
</g>
<g>
</g>
<g>
</g>
<g>
</g>
<g>
</g>
<g>
</g>
<g>
</g>
<g>
</g>
<g>
</g>
</svg>
